<?xml version="1.0" encoding="UTF-8"?><svg id="Layer_2" xmlns="http://www.w3.org/2000/svg" viewBox="0 0 163.98 213.49"><g id="Layer_1-2"><g><path d="M84.35,181.5c-23.46-.34-44.1-3.31-64.18-9.85-19.43-6.33-25.52-22.54-15.21-40.1,5.1-8.68,11.92-16.6,13.48-27,1.32-8.76,.45-17.62,.49-26.42,.04-7.85,.42-15.59,2.73-23.17,4.88-16.03,14.68-28.13,28.96-36.69,2.17-1.3,3.95-2.75,5.48-4.86,12.92-17.85,38.64-17.87,51.57-.07,1.32,1.82,2.84,3.12,4.74,4.22,21.09,12.29,32.29,30.52,32.76,55.07,.16,8.32-.05,16.65,.06,24.98,.09,7.1,1.77,13.8,5.55,19.91,3.06,4.95,6.06,9.93,9.01,14.95,9.23,15.69,2.68,33.19-14.56,39.01-18.15,6.13-43.09,10.08-60.88,10.03Z"/><path d="M52.35,192.15c19.94,2.79,39.31,2.62,58.74,.22-1.52,10.53-14.17,19.98-27.72,21.05-13.01,1.02-26.93-8.29-31.02-21.27Z"/></g></g></svg>