<svg width="24" height="24" viewBox="0 0 24 24" fill="none" xmlns="http://www.w3.org/2000/svg">
<path d="M9 22H15C20 22 22 20 22 15V9C22 4 20 2 15 2H9C4 2 2 4 2 9V15C2 20 4 22 9 22Z" fill="#579D2D"/>
<path d="M12.1077 11.2468C12.041 11.2402 11.961 11.2402 11.8877 11.2468C10.301 11.1935 9.04102 9.8935 9.04102 8.2935C9.04102 6.66016 10.361 5.3335 12.001 5.3335C13.6343 5.3335 14.961 6.66016 14.961 8.2935C14.9543 9.8935 13.6943 11.1935 12.1077 11.2468Z" stroke="#FEFCFD" stroke-width="1.5" stroke-linecap="round" stroke-linejoin="round"/>
<path d="M8.77445 14.7065C7.16112 15.7865 7.16112 17.5465 8.77445 18.6198C10.6078 19.8465 13.6145 19.8465 15.4478 18.6198C17.0611 17.5398 17.0611 15.7798 15.4478 14.7065C13.6211 13.4865 10.6145 13.4865 8.77445 14.7065Z" stroke="#FEFCFD" stroke-width="1.5" stroke-linecap="round" stroke-linejoin="round"/>
</svg>
