<svg width="24" height="24" viewBox="0 0 24 24" fill="none" xmlns="http://www.w3.org/2000/svg">
<path d="M9 22H15C20 22 22 20 22 15V9C22 4 20 2 15 2H9C4 2 2 4 2 9V15C2 20 4 22 9 22Z" fill="#579D2D"/>
<path d="M13.9997 5.3335V12.0002C13.9997 12.7335 13.3997 13.3335 12.6663 13.3335H5.33301V8.00016C5.33301 6.52683 6.52634 5.3335 7.99967 5.3335H13.9997Z" stroke="#FEFCFD" stroke-linecap="round" stroke-linejoin="round"/>
<path d="M18.6663 13.3335V15.3335C18.6663 16.4402 17.773 17.3335 16.6663 17.3335H15.9997C15.9997 16.6002 15.3997 16.0002 14.6663 16.0002C13.933 16.0002 13.333 16.6002 13.333 17.3335H10.6663C10.6663 16.6002 10.0663 16.0002 9.33301 16.0002C8.59967 16.0002 7.99967 16.6002 7.99967 17.3335H7.33301C6.22634 17.3335 5.33301 16.4402 5.33301 15.3335V13.3335H12.6663C13.3997 13.3335 13.9997 12.7335 13.9997 12.0002V7.3335H15.2263C15.7063 7.3335 16.1463 7.5935 16.3863 8.00684L17.5263 10.0002H16.6663C16.2997 10.0002 15.9997 10.3002 15.9997 10.6668V12.6668C15.9997 13.0335 16.2997 13.3335 16.6663 13.3335H18.6663Z" stroke="#FEFCFD" stroke-linecap="round" stroke-linejoin="round"/>
<path d="M9.33333 18.6667C10.0697 18.6667 10.6667 18.0697 10.6667 17.3333C10.6667 16.597 10.0697 16 9.33333 16C8.59695 16 8 16.597 8 17.3333C8 18.0697 8.59695 18.6667 9.33333 18.6667Z" stroke="#FEFCFD" stroke-linecap="round" stroke-linejoin="round"/>
<path d="M14.6663 18.6667C15.4027 18.6667 15.9997 18.0697 15.9997 17.3333C15.9997 16.597 15.4027 16 14.6663 16C13.93 16 13.333 16.597 13.333 17.3333C13.333 18.0697 13.93 18.6667 14.6663 18.6667Z" stroke="#FEFCFD" stroke-linecap="round" stroke-linejoin="round"/>
<path d="M18.6667 12V13.3333H16.6667C16.3 13.3333 16 13.0333 16 12.6667V10.6667C16 10.3 16.3 10 16.6667 10H17.5267L18.6667 12Z" stroke="#FEFCFD" stroke-linecap="round" stroke-linejoin="round"/>
</svg>
